<svg xmlns="http://www.w3.org/2000/svg" viewBox="0 0 500 500"><g id="freepik--Shadow--inject-54"><ellipse cx="250" cy="433.09" rx="208.86" ry="31.66" style="fill:#ebebeb"></ellipse></g><g id="freepik--Floor--inject-54"><polygon points="40.1 380.21 92.57 379.96 145.05 379.88 250 379.71 354.95 379.88 407.43 379.96 459.9 380.21 407.43 380.45 354.95 380.54 250 380.71 145.05 380.54 92.57 380.45 40.1 380.21" style="fill:#263238"></polygon></g><g id="freepik--Wallet--inject-54"><rect x="181.7" y="144.15" width="214.64" height="103.38" transform="translate(-20.78 34.87) rotate(-6.66)" style="fill:#FFC727"></rect><rect x="181.7" y="144.15" width="214.64" height="103.38" transform="translate(-20.78 34.87) rotate(-6.66)" style="opacity:0.1"></rect><path d="M389.61,132l-6.45.76L182.89,156.21l-6.47.75.76,6.46,10.49,89.76.76,6.47,6.45-.76,200.28-23.41,6.45-.75h0L389.63,132Zm4.8,97L194.13,252.42l-10.48-89.76,200.26-23.39Z" style="opacity:0.1"></path><ellipse cx="289.17" cy="197.1" rx="30.06" ry="35.06" transform="translate(-20.92 34.89) rotate(-6.66)" style="opacity:0.1"></ellipse><path d="M239.21,200.65a8.05,8.05,0,1,1-8.93-7.06A8.05,8.05,0,0,1,239.21,200.65Z" style="opacity:0.1"></path><path d="M354.6,187.17a8.05,8.05,0,1,1-8.94-7.07A8.06,8.06,0,0,1,354.6,187.17Z" style="opacity:0.1"></path><path d="M208.42,250.76l-14.29,1.66-1.67-14.27A14.38,14.38,0,0,1,208.42,250.76Z" style="opacity:0.1"></path><path d="M392.73,214.74,394.4,229l-14.27,1.67A14.38,14.38,0,0,1,392.73,214.74Z" style="opacity:0.1"></path><path d="M369.63,140.93l14.28-1.67,1.67,14.27A14.37,14.37,0,0,1,369.63,140.93Z" style="opacity:0.1"></path><path d="M185.31,176.94l-1.67-14.29L197.91,161A14.38,14.38,0,0,1,185.31,176.94Z" style="opacity:0.1"></path><path d="M286.44,170.77a1.46,1.46,0,0,1,1.61,1.27l.28,2.4a19.68,19.68,0,0,1,11.18,2.95,1.69,1.69,0,0,1,1,1.29,1.54,1.54,0,0,1-1.38,1.68,1.48,1.48,0,0,1-1.13-.29,17.16,17.16,0,0,0-9.47-2.85l2,16.81c9.35.85,13.59,3.83,14.28,9.71.74,6.37-4.07,11.5-11.55,12.61l.54,4.69a1.45,1.45,0,0,1-2.88.33l-.55-4.74a22.66,22.66,0,0,1-14.19-4.25,1.55,1.55,0,0,1-.81-1.18,1.58,1.58,0,0,1,1.33-1.68,1.55,1.55,0,0,1,1.13.3,19.47,19.47,0,0,0,12.34,4.09l-2-17.11c-9.24-.93-13.34-3.8-14.05-9.8s4-11.31,11.34-12.34l-.26-2.29A1.46,1.46,0,0,1,286.44,170.77Zm1.34,23-1.91-16.4c-5.81.81-9.25,4.74-8.74,9.06C277.61,190.48,279.82,192.78,287.78,193.74Zm3.08,3.35,1.93,16.57c6-.82,9.49-4.76,8.95-9.32C301.26,200.2,298.86,197.92,290.86,197.09Z" style="fill:#FFC727"></path><rect x="379.51" y="301.94" width="79.22" height="40.2" style="fill:#FFC727"></rect><circle cx="440.91" cy="322.04" r="8.99" transform="translate(26.5 677.54) rotate(-76.77)" style="fill:#ebebeb"></circle><circle cx="440.91" cy="322.04" r="4.92" style="fill:#dbdbdb"></circle><rect x="171.06" y="230.93" width="239.78" height="179.03" style="fill:#FFC727"></rect><rect x="171.06" y="230.93" width="239.78" height="179.03" style="opacity:0.1"></rect><path d="M367.73,140.55l23.92,108.1A11.21,11.21,0,0,1,383.14,262L211.68,300a11.19,11.19,0,0,1-13.35-8.53L174.4,183.33a10.43,10.43,0,0,1,7.93-12.43l173-38.28A10.44,10.44,0,0,1,367.73,140.55Z" style="fill:#455a64"></path><path d="M360.41,239.59a10.3,10.3,0,1,1-12.29-7.84A10.31,10.31,0,0,1,360.41,239.59Z" style="fill:#a6a6a6"></path><path d="M372.8,236.84A10.3,10.3,0,1,1,360.51,229,10.31,10.31,0,0,1,372.8,236.84Z" style="fill:#FFC727"></path><rect x="194.84" y="183.8" width="37.17" height="25.69" rx="4.2" transform="translate(-37.45 50.76) rotate(-12.48)" style="fill:#FFC727"></rect><path d="M350.27,167.64l-16.41,3.63a7,7,0,0,1-8.4-5.36h0a7,7,0,0,1,5.35-8.4l16.42-3.63a7,7,0,0,1,8.4,5.36h0A7.05,7.05,0,0,1,350.27,167.64Z" style="fill:#fff"></path><path d="M201.78,236.36l-1.29,1.2a.37.37,0,0,1-.17.1.39.39,0,0,1-.36-.11.36.36,0,0,1,0-.53l1.76-1.68a.39.39,0,0,1,.52,0,.43.43,0,0,1,.11.26l2.14,9.67a.37.37,0,0,1-.28.44.39.39,0,0,1-.45-.28Z" style="fill:#f8f8f8"></path><path d="M207,244.44l3.93-5.52a2.79,2.79,0,0,0,.46-2.22,2.78,2.78,0,0,0-3.3-2.09,2.81,2.81,0,0,0-1.69,1.1l-.4.58a.37.37,0,0,1-.62-.42l.41-.6a3.61,3.61,0,0,1,2.13-1.4,3.54,3.54,0,0,1,4.19,2.67,3.54,3.54,0,0,1-.56,2.81l-3.37,4.73,5-1.1a.38.38,0,0,1,.44.3.37.37,0,0,1-.28.44L207.5,245h-.06a.35.35,0,0,1-.3-.05A.4.4,0,0,1,207,244.44Z" style="fill:#f8f8f8"></path><path d="M220.24,231.85l-2.1,3.4a3.59,3.59,0,0,1,3.61,2.86,3.59,3.59,0,0,1-.49,2.76,3.68,3.68,0,0,1-2.3,1.61,3.56,3.56,0,0,1-2.74-.5.37.37,0,0,1-.12-.52.38.38,0,0,1,.53-.12,2.92,2.92,0,0,0,4-.88,2.86,2.86,0,0,0,.39-2.19,2.89,2.89,0,0,0-3.44-2.18.4.4,0,0,1-.33-.09h0a.38.38,0,0,1-.12-.54l2-3.27-4,.89a.38.38,0,0,1-.46-.29.38.38,0,0,1,.29-.46l4.92-1.09a.39.39,0,0,1,.46.3.32.32,0,0,1,0,.17A.58.58,0,0,1,220.24,231.85Z" style="fill:#f8f8f8"></path><path d="M230.78,237.59l-5.7,1.26h0a.31.31,0,0,1-.25,0,.35.35,0,0,1-.15-.5l4.41-8.93v0a.36.36,0,0,1,.5-.16.49.49,0,0,1,.16.16s0,0,0,.05v.05l1.6,7.22.7-.16a.38.38,0,0,1,.46.28.37.37,0,0,1-.3.44l-.7.16.4,1.81a.38.38,0,0,1-.74.16Zm-.16-.72-1.36-6.16L225.64,238Z" style="fill:#f8f8f8"></path><path d="M244.22,235.8a.36.36,0,0,1-.11-.52.38.38,0,0,1,.54-.12,2.91,2.91,0,0,0,2.16.37,2.9,2.9,0,0,0,2.19-3.44,2.83,2.83,0,0,0-3.42-2.19,2.86,2.86,0,0,0-1.82,1.27.37.37,0,0,1-.52.12.29.29,0,0,1-.12-.1v0s0,0,0,0a.34.34,0,0,1,0-.12.21.21,0,0,0,0-.08l-.43-4.35a.35.35,0,0,1,.09-.3.34.34,0,0,1,.22-.15l4.91-1.08a.38.38,0,1,1,.16.75l-4.58,1,.31,3.22a3.65,3.65,0,0,1,5.55,4.65,3.78,3.78,0,0,1-2.3,1.6A3.67,3.67,0,0,1,244.22,235.8Z" style="fill:#f8f8f8"></path><path d="M252.66,226.39a4.37,4.37,0,0,1,3.17-3.1.38.38,0,0,1,.46.27.41.41,0,0,1-.28.47,3.63,3.63,0,0,0-2.64,2.59,7,7,0,0,0-.29,2.27,3.54,3.54,0,1,1-.34,2.6,5,5,0,0,1-.18-.69A8.79,8.79,0,0,1,252.66,226.39Zm.8,4.87a.68.68,0,0,0,.08.19.22.22,0,0,1,0,.11,2.84,2.84,0,1,0-.1-.36Z" style="fill:#f8f8f8"></path><path d="M264.16,231.94,266,221.85,260.93,223a.37.37,0,0,1-.16-.72l5.57-1.23a.41.41,0,0,1,.22,0,.43.43,0,0,1,.25.18c0,.05.05.07.06.12a.38.38,0,0,1,0,.21l-1.93,10.58a.39.39,0,0,1-.28.3.29.29,0,0,1-.16,0A.41.41,0,0,1,264.16,231.94Z" style="fill:#f8f8f8"></path><path d="M272.35,219.62a2.24,2.24,0,0,1,2.17,3.67,3.49,3.49,0,1,1-2.61.58,2.29,2.29,0,0,1-1.26-1.58A2.23,2.23,0,0,1,272.35,219.62Zm2.17,9.81a2.76,2.76,0,1,0-3.29-2.1A2.74,2.74,0,0,0,274.52,229.43Zm-1.36-6.14a1.52,1.52,0,0,0,1.14-1.81,1.5,1.5,0,0,0-2.93.65A1.52,1.52,0,0,0,273.16,223.29Z" style="fill:#f8f8f8"></path><path d="M291.06,215.48a3.55,3.55,0,0,1,4.14,2.31s0,0,0,.06c.08.29.16.58.23.9a8.94,8.94,0,0,1-.08,4.42,4.43,4.43,0,0,1-3.18,3.1h0a.35.35,0,0,1-.45-.26.38.38,0,0,1,.27-.47,3.66,3.66,0,0,0,2.65-2.59,6.84,6.84,0,0,0,.28-2.27,3.56,3.56,0,1,1-3.89-5.2Zm3.52,2.85a2.81,2.81,0,1,0-2.15,3.35A2.81,2.81,0,0,0,294.58,218.33Z" style="fill:#f8f8f8"></path><path d="M298.38,219.38a6.87,6.87,0,0,1,.19-3.9,3.06,3.06,0,0,1,5.27-1.17,7.08,7.08,0,0,1,1.84,3.46,6.94,6.94,0,0,1-.22,3.9,3,3,0,0,1-5.26,1.16A6.74,6.74,0,0,1,298.38,219.38Zm.74-.16a6.17,6.17,0,0,0,1.61,3.07,2.29,2.29,0,0,0,4-.89,6.49,6.49,0,0,0-1.45-6.53,2.29,2.29,0,0,0-4,.89A6.1,6.1,0,0,0,299.12,219.22Z" style="fill:#f8f8f8"></path><path d="M309.61,212.5l-1.29,1.2a.37.37,0,0,1-.17.1.39.39,0,0,1-.36-.11.37.37,0,0,1,0-.53l1.76-1.68a.37.37,0,0,1,.52,0,.43.43,0,0,1,.11.26l2.14,9.67a.37.37,0,0,1-.28.44.38.38,0,0,1-.44-.28Z" style="fill:#f8f8f8"></path><path d="M314.87,220.58l3.93-5.53a2.76,2.76,0,0,0,.46-2.21,2.73,2.73,0,0,0-1.11-1.65,2.71,2.71,0,0,0-2.19-.44,2.77,2.77,0,0,0-1.68,1.09l-.41.58a.35.35,0,0,1-.52.1.35.35,0,0,1-.09-.51l.4-.6a3.61,3.61,0,0,1,2.13-1.4,3.54,3.54,0,0,1,4.19,2.67,3.54,3.54,0,0,1-.56,2.81l-3.37,4.73,5-1.1a.38.38,0,0,1,.44.3.37.37,0,0,1-.28.44l-5.86,1.3h-.06a.35.35,0,0,1-.3,0A.4.4,0,0,1,314.87,220.58Z" style="fill:#f8f8f8"></path><path d="M337.09,206l-2.1,3.4a3.67,3.67,0,0,1,2,.56,3.67,3.67,0,0,1-1.19,6.67,3.56,3.56,0,0,1-2.74-.5.37.37,0,0,1-.12-.52.38.38,0,0,1,.53-.12,2.89,2.89,0,1,0,.93-5.25.39.39,0,0,1-.33-.09h0a.4.4,0,0,1-.12-.54l2-3.28-4,.9a.39.39,0,0,1-.46-.3.38.38,0,0,1,.29-.46l4.92-1.08a.38.38,0,0,1,.46.29.32.32,0,0,1,0,.17A.58.58,0,0,1,337.09,206Z" style="fill:#f8f8f8"></path><path d="M347.63,211.74l-5.7,1.26h-.05a.34.34,0,0,1-.24,0,.36.36,0,0,1-.16-.5l4.42-8.93v0a.36.36,0,0,1,.5-.15.46.46,0,0,1,.16.15.33.33,0,0,0,0,.06v0l1.6,7.22.7-.16a.37.37,0,1,1,.16.73l-.7.15.39,1.81a.37.37,0,0,1-.29.44.36.36,0,0,1-.44-.28Zm-.16-.73-1.37-6.16-3.61,7.27Z" style="fill:#f8f8f8"></path><path d="M352.05,211.94a.38.38,0,0,1-.11-.53.4.4,0,0,1,.54-.12,2.87,2.87,0,0,0,2.16.38,2.9,2.9,0,0,0,2.19-3.44,2.83,2.83,0,0,0-3.42-2.19,2.84,2.84,0,0,0-1.81,1.27.38.38,0,0,1-.53.12.4.4,0,0,1-.12-.1v0s0,0,0,0a.34.34,0,0,1,0-.12.21.21,0,0,0,0-.08l-.43-4.35a.37.37,0,0,1,.09-.31.37.37,0,0,1,.22-.14l4.91-1.08a.38.38,0,1,1,.16.75l-4.58,1,.31,3.21a3.65,3.65,0,0,1,1.69-.87,3.54,3.54,0,0,1,2.74.48,3.5,3.5,0,0,1,1.59,2.3,3.61,3.61,0,0,1-.47,2.75,3.78,3.78,0,0,1-2.3,1.6A3.67,3.67,0,0,1,352.05,211.94Z" style="fill:#f8f8f8"></path><path d="M360.49,202.53a4.38,4.38,0,0,1,3.18-3.1.37.37,0,0,1,.45.26.41.41,0,0,1-.28.48,3.63,3.63,0,0,0-2.64,2.58,7.1,7.1,0,0,0-.29,2.28,3.52,3.52,0,0,1,2.34-1.77,3.56,3.56,0,1,1-2.68,4.37,5,5,0,0,1-.18-.69A8.91,8.91,0,0,1,360.49,202.53Zm.81,4.87a.54.54,0,0,0,.07.19.22.22,0,0,1,0,.11,2.84,2.84,0,1,0-.1-.36Z" style="fill:#f8f8f8"></path><rect x="208.59" y="253.37" width="94.03" height="4.62" transform="translate(-49.21 61.27) rotate(-12.48)" style="fill:#a6a6a6"></rect><rect x="211.13" y="266.35" width="66.57" height="4.62" transform="translate(-52.28 59.16) rotate(-12.48)" style="fill:#a6a6a6"></rect><rect x="271.78" y="165.44" width="46.89" height="4.62" transform="translate(-29.27 67.75) rotate(-12.48)" style="fill:#a6a6a6"></rect><rect x="186.29" y="252.97" width="209.32" height="61.27" style="fill:#FFC727"></rect><rect x="186.29" y="252.97" width="209.32" height="61.27" style="opacity:0.30000000000000004"></rect><path d="M389.81,251.44l.29,110.72a11.22,11.22,0,0,1-11.17,11.24l-175.61.45a11.19,11.19,0,0,1-11.22-11.18L191.81,252a10.42,10.42,0,0,1,10.4-10.45L379.35,241A10.43,10.43,0,0,1,389.81,251.44Z" style="fill:#dbdbdb"></path><path d="M361.52,346.63a10.31,10.31,0,1,1-10.34-10.28A10.31,10.31,0,0,1,361.52,346.63Z" style="fill:#a6a6a6"></path><path d="M374.21,346.59a10.31,10.31,0,1,1-10.34-10.28A10.32,10.32,0,0,1,374.21,346.59Z" style="fill:#FFC727"></path><rect x="208.5" y="260.45" width="37.17" height="25.69" rx="4.2" transform="translate(-0.71 0.59) rotate(-0.15)" style="fill:#FFC727"></rect><path d="M367,274.17l-16.82.05a7,7,0,0,1-7.06-7h0a7,7,0,0,1,7-7.06l16.82-.05a7,7,0,0,1,7.06,7h0A7,7,0,0,1,367,274.17Z" style="fill:#fff"></path><path d="M207.23,309.6l-1.52.9a.39.39,0,0,1-.18.06.37.37,0,0,1-.33-.18.36.36,0,0,1,.14-.51l2.08-1.27a.38.38,0,0,1,.5.14.39.39,0,0,1,.05.28l0,9.9a.37.37,0,0,1-.37.37.38.38,0,0,1-.37-.37Z" style="fill:#f8f8f8"></path><path d="M210.64,318.62l5-4.56a2.77,2.77,0,0,0-3.74-4.1l-.52.48a.36.36,0,0,1-.53,0,.35.35,0,0,1,0-.52l.52-.49a3.58,3.58,0,0,1,2.38-.92,3.44,3.44,0,0,1,2.59,1.15,3.4,3.4,0,0,1,.93,2.36,3.54,3.54,0,0,1-1.14,2.62l-4.31,3.9H217a.38.38,0,0,1,.37.39.38.38,0,0,1-.37.37h-6.06a.34.34,0,0,1-.28-.11A.4.4,0,0,1,210.64,318.62Z" style="fill:#f8f8f8"></path><path d="M226.23,309.14,223.45,312a3.61,3.61,0,0,1,2.92,3.57,3.62,3.62,0,0,1-1.07,2.59,3.67,3.67,0,0,1-2.59,1.08,3.6,3.6,0,0,1-2.57-1.07.36.36,0,0,1,0-.54.38.38,0,0,1,.54,0,2.9,2.9,0,0,0,2,.83,3,3,0,0,0,2-.84,2.87,2.87,0,0,0,.84-2.05,2.89,2.89,0,0,0-2.89-2.87.43.43,0,0,1-.31-.16h0a.38.38,0,0,1,0-.55l2.67-2.77h-4.13a.39.39,0,0,1,0-.77h5a.38.38,0,0,1,.38.38.29.29,0,0,1,0,.17A.41.41,0,0,1,226.23,309.14Z" style="fill:#f8f8f8"></path><path d="M235.3,317l-5.84,0h0a.32.32,0,0,1-.23-.08.35.35,0,0,1-.05-.52l6.22-7.78v0a.36.36,0,0,1,.52-.05.46.46,0,0,1,.13.19s0,0,0,.06v.05l0,7.39h.73a.37.37,0,1,1,0,.74h-.73v1.85a.38.38,0,0,1-.75,0Zm0-.74,0-6.31-5.08,6.32Z" style="fill:#f8f8f8"></path><path d="M248.81,318.12a.38.38,0,0,1,0-.54.4.4,0,0,1,.56,0,2.9,2.9,0,0,0,2,.83,2.85,2.85,0,0,0,2-.86,2.79,2.79,0,0,0,.84-2,2.9,2.9,0,0,0-.83-2,2.91,2.91,0,0,0-4.08,0,.38.38,0,0,1-.54,0,.28.28,0,0,1-.1-.12v0a.06.06,0,0,1,0,0,.27.27,0,0,1,0-.13.31.31,0,0,0,0-.07l.51-4.35a.33.33,0,0,1,.15-.28.38.38,0,0,1,.25-.09h5a.39.39,0,1,1,0,.77H250l-.38,3.2a3.63,3.63,0,0,1,1.83-.49,3.6,3.6,0,0,1,3.64,3.64,3.59,3.59,0,0,1-1,2.59,3.81,3.81,0,0,1-2.59,1.07A3.65,3.65,0,0,1,248.81,318.12Z" style="fill:#f8f8f8"></path><path d="M259.06,310.73a4.39,4.39,0,0,1,3.77-2.35.38.38,0,0,1,.39.35.41.41,0,0,1-.37.41,3.63,3.63,0,0,0-3.14,2,6.93,6.93,0,0,0-.76,2.16,3.54,3.54,0,1,1-.89,2.46,5.39,5.39,0,0,1,0-.7A8.94,8.94,0,0,1,259.06,310.73Zm-.25,4.93a1.06,1.06,0,0,0,0,.2.34.34,0,0,1,0,.11,2.84,2.84,0,1,0,0-.37Z" style="fill:#f8f8f8"></path><path d="M269.12,318.61l4-9.47h-5.2a.38.38,0,0,1-.37-.37.37.37,0,0,1,.36-.37h5.7a.36.36,0,0,1,.23,0,.43.43,0,0,1,.21.23.61.61,0,0,1,0,.13.36.36,0,0,1-.06.2l-4.15,9.93a.38.38,0,0,1-.34.23.27.27,0,0,1-.15,0A.41.41,0,0,1,269.12,318.61Z" style="fill:#f8f8f8"></path><path d="M279.74,308.32a2.25,2.25,0,0,1,2.26,2.23,2.29,2.29,0,0,1-.92,1.82,3.49,3.49,0,1,1-2.66,0,2.28,2.28,0,0,1-.9-1.82A2.22,2.22,0,0,1,279.74,308.32Zm0,10a2.76,2.76,0,1,0-2.76-2.75A2.74,2.74,0,0,0,279.77,318.36Zm0-6.28a1.54,1.54,0,0,0,1.51-1.53,1.5,1.5,0,1,0-1.51,1.53Z" style="fill:#f8f8f8"></path><path d="M298.91,308.27a3.55,3.55,0,0,1,3.55,3.13.19.19,0,0,0,0,.08q0,.43,0,.93a8.88,8.88,0,0,1-1,4.3,4.46,4.46,0,0,1-3.77,2.35h0a.37.37,0,0,1-.39-.36.4.4,0,0,1,.37-.4,3.65,3.65,0,0,0,3.14-2,6.61,6.61,0,0,0,.76-2.16,3.51,3.51,0,0,1-2.67,1.19,3.55,3.55,0,1,1,0-7.1Zm2.83,3.54a2.82,2.82,0,1,0-2.82,2.81A2.8,2.8,0,0,0,301.74,311.81Z" style="fill:#f8f8f8"></path><path d="M305.23,313.65a6.9,6.9,0,0,1,1-3.78,3.06,3.06,0,0,1,5.39,0,7.28,7.28,0,0,1,0,7.53,3,3,0,0,1-5.39,0A6.78,6.78,0,0,1,305.23,313.65Zm.76,0a6.13,6.13,0,0,0,.91,3.34,2.29,2.29,0,0,0,4.13,0,6.46,6.46,0,0,0,0-6.68,2.29,2.29,0,0,0-4.12,0A6,6,0,0,0,306,313.64Z" style="fill:#f8f8f8"></path><path d="M317.67,309.32l-1.52.89a.4.4,0,0,1-.18.07.38.38,0,0,1-.33-.19.35.35,0,0,1,.14-.51l2.07-1.27a.39.39,0,0,1,.51.14.4.4,0,0,1,.05.28l0,9.9a.37.37,0,0,1-.74,0Z" style="fill:#f8f8f8"></path><path d="M321.08,318.33l5-4.55a2.77,2.77,0,0,0-1.86-4.82,2.84,2.84,0,0,0-1.88.71l-.52.48a.36.36,0,0,1-.53,0,.35.35,0,0,1,0-.52l.52-.5a3.6,3.6,0,0,1,2.38-.91,3.53,3.53,0,0,1,3.52,3.5,3.54,3.54,0,0,1-1.14,2.62l-4.31,3.91,5.1,0a.38.38,0,0,1,.37.39.38.38,0,0,1-.37.37h-6.06a.34.34,0,0,1-.28-.11A.41.41,0,0,1,321.08,318.33Z" style="fill:#f8f8f8"></path><path d="M345.9,308.83l-2.78,2.87a3.59,3.59,0,0,1,2.92,3.57,3.59,3.59,0,0,1-1.07,2.59,3.63,3.63,0,0,1-5.16,0,.38.38,0,0,1,0-.54.37.37,0,0,1,.54,0,2.87,2.87,0,0,0,2,.82,2.94,2.94,0,0,0,2-.83,2.9,2.9,0,0,0-2-4.93.36.36,0,0,1-.31-.15h0a.39.39,0,0,1,0-.55l2.67-2.77h-4.12a.38.38,0,0,1-.39-.38.38.38,0,0,1,.38-.39h5a.38.38,0,0,1,.39.38.29.29,0,0,1,0,.17A.22.22,0,0,1,345.9,308.83Z" style="fill:#f8f8f8"></path><path d="M355,316.69h-5.88a.28.28,0,0,1-.23-.07.35.35,0,0,1-.05-.52l6.22-7.78,0,0a.35.35,0,0,1,.52-.05.55.55,0,0,1,.12.19s0,0,0,.06v.05l0,7.39h.72a.37.37,0,1,1,0,.74h-.72v1.85a.37.37,0,0,1-.38.37.38.38,0,0,1-.37-.37Zm0-.74v-6.31L349.87,316Z" style="fill:#f8f8f8"></path><path d="M359.25,317.83a.38.38,0,0,1,0-.54.4.4,0,0,1,.56,0,2.87,2.87,0,0,0,4.06,0,2.81,2.81,0,0,0,.84-2,2.83,2.83,0,0,0-2.87-2.87,2.83,2.83,0,0,0-2,.85.36.36,0,0,1-.54,0,.23.23,0,0,1-.1-.12h0a.11.11,0,0,1,0-.05.23.23,0,0,1,0-.12s0-.05,0-.08l.51-4.35a.32.32,0,0,1,.15-.27.33.33,0,0,1,.25-.1h5a.39.39,0,1,1,0,.77h-4.69l-.38,3.21a3.63,3.63,0,0,1,5.47,3.14,3.59,3.59,0,0,1-1.05,2.59,3.72,3.72,0,0,1-2.59,1.07A3.65,3.65,0,0,1,359.25,317.83Z" style="fill:#f8f8f8"></path><path d="M369.5,310.45a4.38,4.38,0,0,1,3.77-2.36.38.38,0,0,1,.38.36.39.39,0,0,1-.36.4,3.65,3.65,0,0,0-3.14,2,7.2,7.2,0,0,0-.77,2.16,3.55,3.55,0,1,1-.88,2.47,5.47,5.47,0,0,1,0-.71A8.93,8.93,0,0,1,369.5,310.45Zm-.25,4.92a1.06,1.06,0,0,0,0,.2.34.34,0,0,1,0,.11,2.84,2.84,0,1,0,0-.37Z" style="fill:#f8f8f8"></path><rect x="208.68" y="337.66" width="94.03" height="4.62" transform="translate(-0.88 0.66) rotate(-0.15)" style="fill:#a6a6a6"></rect><rect x="208.7" y="347.96" width="66.57" height="4.62" transform="translate(-0.91 0.63) rotate(-0.15)" style="fill:#a6a6a6"></rect><rect x="289.72" y="260.22" width="46.89" height="4.62" transform="translate(-0.68 0.81) rotate(-0.15)" style="fill:#a6a6a6"></rect><rect x="186.29" y="272.61" width="209.32" height="102.59" style="fill:#FFC727"></rect><rect x="186.29" y="272.61" width="209.32" height="102.59" style="opacity:0.2"></rect><rect x="186.29" y="290.84" width="209.32" height="102.59" style="fill:#FFC727"></rect><rect x="186.29" y="290.84" width="209.32" height="102.59" style="opacity:0.30000000000000004"></rect><rect x="186.29" y="309.64" width="209.32" height="83.8" style="fill:#FFC727"></rect><rect x="186.29" y="309.64" width="209.32" height="83.8" style="opacity:0.2"></rect><path d="M389.15,441,171.06,410v-179l7,5.18a23.37,23.37,0,0,0,11.49,4.49L389.15,262Z" style="fill:#FFC727"></path><rect x="171.35" y="238.63" width="1" height="2" transform="translate(-122.78 227.37) rotate(-51.97)" style="fill:#fff"></rect><path d="M375,270l-4-.45.11-1,4,.45Zm-7.06-.79-4-.45.11-1,4,.45Zm-7.06-.79-4-.45.11-1,4,.46Zm-7.06-.79-4-.45.11-1,4,.45Zm-7.06-.79-4-.45.11-1,4,.45Zm-7-.79-4-.45.11-1,4,.45Zm-7.06-.78-4-.46.11-1,4,.45Zm-7.06-.79-4-.45.11-1,4,.45Zm-7.06-.79-4-.45.11-1,4,.45Zm-7.05-.79-4-.45.11-1,4,.45Zm-7.06-.79-4-.45.12-1,4,.45Zm-7.06-.79-4-.45.11-1,4,.45Zm-7.06-.79-4-.45.11-1,4,.45Zm-7.06-.78-4-.46.11-1,4,.45ZM276.2,259l-4-.45.11-1,4,.45Zm-7.06-.79-4-.45.11-1,4,.45Zm-7.06-.79-4-.45.11-1,4,.46Zm-7.06-.79-4-.45.11-1,4,.45ZM248,255.8l-4-.45.11-1,4,.45Zm-7.05-.79-4-.45.12-1,4,.45Zm-7.06-.78-4-.46.11-1,4,.45Zm-7.06-.79-4-.45.11-1,4,.45Zm-7.06-.79-4-.45.11-1,4,.45Zm-7-.79-4-.45.11-1,4,.45Zm-7.06-.79-4-.45.12-1,4,.45Zm-7.06-.79-4-.45.11-1,4,.45Zm-7.06-.79-2.4-.26c-.56-.07-1.11-.15-1.66-.25l.18-1c.53.09,1.06.17,1.59.23l2.4.27Zm-7.07-1.26a25.07,25.07,0,0,1-3.82-1.6l.47-.89a23,23,0,0,0,3.66,1.53ZM178,245c-.33-.24-.66-.48-1-.73l-2.25-1.76.61-.79,2.25,1.76c.31.24.63.47.95.7Z" style="fill:#fff"></path><polygon points="380.58 272.06 379.58 272.06 379.58 270.51 378.03 270.33 378.14 269.34 380.58 269.61 380.58 272.06" style="fill:#fff"></polygon><path d="M380.58,427.89h-1v-4.05h1Zm0-7.09h-1v-4.05h1Zm0-7.08h-1v-4.05h1Zm0-7.08h-1v-4.05h1Zm0-7.09h-1v-4h1Zm0-7.08h-1v-4.05h1Zm0-7.08h-1v-4.05h1Zm0-7.09h-1v-4h1Zm0-7.08h-1v-4.05h1Zm0-7.08h-1v-4.05h1Zm0-7.08h-1V353h1Zm0-7.09h-1v-4h1Zm0-7.08h-1v-4.05h1Zm0-7.08h-1v-4.05h1Zm0-7.09h-1v-4h1Zm0-7.08h-1v-4.05h1Zm0-7.08h-1v-4.05h1Zm0-7.09h-1v-4h1Zm0-7.08h-1v-4.05h1Zm0-7.08h-1v-4.05h1Zm0-7.08h-1v-4.05h1Zm0-7.09h-1v-4h1Z" style="fill:#fff"></path><polygon points="380.58 433.5 378.02 433.12 378.17 432.13 379.58 432.34 379.58 430.92 380.58 430.92 380.58 433.5" style="fill:#fff"></polygon><path d="M375,432.68l-4-.59.14-1,4,.59Zm-7-1-4-.59.15-1,4,.59Zm-7-1-4-.59.15-1,4,.59Zm-7-1-4-.59.15-1,4,.59Zm-7-1-4-.59.14-1,4,.59Zm-7-1-4-.59.14-1,4,.59Zm-7-1-4-.59.15-1,4,.59Zm-7-1-4-.59.15-1,4,.59Zm-7-1-4-.59.15-1,4,.59Zm-7-1-4-.59.15-1,4,.6Zm-7-1-4-.59.14-1,4,.59Zm-7-1-4-.59.15-1,4,.59Zm-7-1-4-.59.15-1,4,.59Zm-7-1-4-.59.15-1,4,.6Zm-7-1-4-.59.15-1,4,.59Zm-7-1-4-.59.14-1,4,.6Zm-7-1-4-.59.14-1,4,.59Zm-7-1-4-.59.15-1,4,.59Zm-7-1-4-.59.15-1,4,.59Zm-7-1-4-.59.15-1,4,.6Zm-7-1-4-.59.14-1,4,.59Zm-7-1-4-.59.15-1,4,.6Zm-7-1-4-.59.15-1,4,.59Zm-7-1-4-.59.15-1,4,.6Zm-7-1-4-.59.15-1,4,.59Zm-7-1-4-.59.14-1,4,.6Zm-7-1-4-.59.15-1,4,.59Zm-7-1-4-.59.15-1,4,.6Zm-7-1-4-.59.15-1,4,.59Z" style="fill:#fff"></path><rect x="171.55" y="401.02" width="1" height="2" transform="matrix(0.15, -0.99, 0.99, 0.15, -250.89, 513.13)" style="fill:#fff"></rect><ellipse cx="361.03" cy="350.43" rx="8.69" ry="9.9" style="fill:#ebebeb"></ellipse><path d="M365.08,350.43a4.08,4.08,0,1,1-4.05-4.6A4.35,4.35,0,0,1,365.08,350.43Z" style="fill:#dbdbdb"></path></g></svg>